<svg width="31" height="31" viewBox="0 0 31 31" fill="none" xmlns="http://www.w3.org/2000/svg">
<path d="M10.1667 1.91669H9.16666C8.75244 1.91669 8.41666 2.25247 8.41666 2.66669V28.6667C8.41666 29.0809 8.75244 29.4167 9.16666 29.4167H10.1667C10.5809 29.4167 10.9167 29.0809 10.9167 28.6667V2.66669C10.9167 2.25247 10.5809 1.91669 10.1667 1.91669Z" fill="#FFFFFF"/>
<path d="M22.4167 1.91669H21.4167C21.0024 1.91669 20.6667 2.25247 20.6667 2.66669V28.6667C20.6667 29.0809 21.0024 29.4167 21.4167 29.4167H22.4167C22.8309 29.4167 23.1667 29.0809 23.1667 28.6667V2.66669C23.1667 2.25247 22.8309 1.91669 22.4167 1.91669Z" fill="#FFFFFF"/>
<path d="M1.91666 8.16669V9.16669C1.91666 9.5809 2.25244 9.91669 2.66666 9.91669L28.6667 9.91669C29.0809 9.91669 29.4167 9.5809 29.4167 9.16669V8.16669C29.4167 7.75247 29.0809 7.41669 28.6667 7.41669L2.66666 7.41669C2.25244 7.41669 1.91666 7.75247 1.91666 8.16669Z" fill="#FFFFFF"/>
<path d="M1.91666 21.9167V22.9167C1.91666 23.3309 2.25244 23.6667 2.66666 23.6667H28.6667C29.0809 23.6667 29.4167 23.3309 29.4167 22.9167V21.9167C29.4167 21.5025 29.0809 21.1667 28.6667 21.1667H2.66666C2.25244 21.1667 1.91666 21.5025 1.91666 21.9167Z" fill="#FFFFFF"/>
<path d="M12.1335 15.8132C12.1335 16.9909 12.4938 17.9313 13.2145 18.6345C13.9411 19.3317 14.8727 19.6804 16.0094 19.6804C17.0758 19.6804 17.9049 19.3669 18.4967 18.7399C19.0944 18.1071 19.3932 17.3952 19.3932 16.6042V16.4899H17.6706V16.6042C17.6706 16.985 17.5241 17.3132 17.2311 17.5886C16.944 17.8581 16.5368 17.9929 16.0094 17.9929C15.3766 17.9929 14.8698 17.7966 14.4889 17.404C14.1139 17.0114 13.9264 16.4811 13.9264 15.8132V15.5319C13.9264 14.8698 14.1139 14.3425 14.4889 13.9499C14.8639 13.5515 15.3708 13.3522 16.0094 13.3522C16.5368 13.3522 16.9411 13.4841 17.2223 13.7477C17.5094 14.0056 17.6589 14.3249 17.6706 14.7057L17.6794 14.8552H19.402L19.3932 14.6618C19.3464 13.8766 19.0358 13.1823 18.4616 12.5788C17.8932 11.9694 17.0758 11.6647 16.0094 11.6647C14.8727 11.6647 13.9411 12.0163 13.2145 12.7194C12.4938 13.4167 12.1335 14.3542 12.1335 15.5319V15.8132Z" fill="#FFFFFF"/>
<path d="M13.2145 18.6345L13.0399 18.8134L13.0414 18.8148L13.2145 18.6345ZM18.4967 18.7399L18.315 18.5683L18.3149 18.5683L18.4967 18.7399ZM19.3932 16.4899H19.6432C19.6432 16.3519 19.5313 16.2399 19.3932 16.2399V16.4899ZM17.6706 16.4899V16.2399C17.5325 16.2399 17.4206 16.3519 17.4206 16.4899H17.6706ZM17.2311 17.5886L17.4022 17.7708L17.4023 17.7707L17.2311 17.5886ZM14.4889 17.404L14.3081 17.5767L14.3095 17.5781L14.4889 17.404ZM14.4889 13.9499L14.6697 14.1226L14.671 14.1212L14.4889 13.9499ZM17.2223 13.7477L17.0513 13.9301C17.0526 13.9313 17.054 13.9326 17.0553 13.9338L17.2223 13.7477ZM17.6706 14.7057L17.4207 14.7134C17.4208 14.7158 17.4209 14.7181 17.421 14.7204L17.6706 14.7057ZM17.6794 14.8552L17.4298 14.8698C17.4376 15.002 17.547 15.1052 17.6794 15.1052V14.8552ZM19.402 14.8552V15.1052C19.4703 15.1052 19.5356 15.0772 19.5828 15.0279C19.6299 14.9785 19.6549 14.912 19.6518 14.8438L19.402 14.8552ZM19.3932 14.6618L19.643 14.6505C19.6429 14.6493 19.6429 14.6481 19.6428 14.6469L19.3932 14.6618ZM18.4616 12.5788L18.2788 12.7493L18.2805 12.7511L18.4616 12.5788ZM13.2145 12.7194L13.3883 12.8991L13.3884 12.8991L13.2145 12.7194ZM11.8835 15.8132C11.8835 17.0459 12.2628 18.0552 13.0399 18.8134L13.3891 18.4555C12.7248 17.8074 12.3835 16.9359 12.3835 15.8132H11.8835ZM13.0414 18.8148C13.8206 19.5626 14.8172 19.9304 16.0094 19.9304V19.4304C14.9282 19.4304 14.0615 19.1008 13.3876 18.4541L13.0414 18.8148ZM16.0094 19.9304C17.1272 19.9304 18.0287 19.5999 18.6785 18.9115L18.3149 18.5683C17.7811 19.1338 17.0245 19.4304 16.0094 19.4304V19.9304ZM18.6785 18.9116C19.3152 18.2374 19.6432 17.4657 19.6432 16.6042H19.1432C19.1432 17.3247 18.8736 17.9768 18.315 18.5683L18.6785 18.9116ZM19.6432 16.6042V16.4899H19.1432V16.6042H19.6432ZM19.3932 16.2399H17.6706V16.7399H19.3932V16.2399ZM17.4206 16.4899V16.6042H17.9206V16.4899H17.4206ZM17.4206 16.6042C17.4206 16.9119 17.3057 17.1753 17.0599 17.4064L17.4023 17.7707C17.7424 17.451 17.9206 17.0582 17.9206 16.6042H17.4206ZM17.06 17.4063C16.8331 17.6193 16.4952 17.7429 16.0094 17.7429V18.2429C16.5783 18.2429 17.0549 18.0969 17.4022 17.7708L17.06 17.4063ZM16.0094 17.7429C15.4327 17.7429 14.9947 17.5663 14.6684 17.2299L14.3095 17.5781C14.7449 18.0269 15.3205 18.2429 16.0094 18.2429V17.7429ZM14.6697 17.2313C14.3489 16.8954 14.1764 16.4324 14.1764 15.8132H13.6764C13.6764 16.5298 13.879 17.1274 14.3082 17.5767L14.6697 17.2313ZM14.1764 15.8132V15.5319H13.6764V15.8132H14.1764ZM14.1764 15.5319C14.1764 14.9192 14.3485 14.4589 14.6697 14.1226L14.3082 13.7772C13.8794 14.2261 13.6764 14.8204 13.6764 15.5319H14.1764ZM14.671 14.1212C14.9908 13.7815 15.4271 13.6022 16.0094 13.6022V13.1022C15.3144 13.1022 14.7371 13.3214 14.3069 13.7785L14.671 14.1212ZM16.0094 13.6022C16.497 13.6022 16.8312 13.7238 17.0513 13.9301L17.3933 13.5654C17.0509 13.2444 16.5766 13.1022 16.0094 13.1022V13.6022ZM17.0553 13.9338C17.2923 14.1466 17.4111 14.4018 17.4207 14.7134L17.9205 14.6981C17.9066 14.248 17.7266 13.8645 17.3894 13.5617L17.0553 13.9338ZM17.421 14.7204L17.4298 14.8698L17.9289 14.8405L17.9201 14.6911L17.421 14.7204ZM17.6794 15.1052H19.402V14.6052H17.6794V15.1052ZM19.6518 14.8438L19.643 14.6505L19.1435 14.6732L19.1523 14.8665L19.6518 14.8438ZM19.6428 14.6469C19.5922 13.7992 19.255 13.05 18.6427 12.4065L18.2805 12.7511C18.8166 13.3146 19.1005 13.9541 19.1437 14.6767L19.6428 14.6469ZM18.6444 12.4083C18.0164 11.7349 17.1246 11.4147 16.0094 11.4147V11.9147C17.0271 11.9147 17.7701 12.2039 18.2788 12.7493L18.6444 12.4083ZM16.0094 11.4147C14.8166 11.4147 13.8198 11.7858 13.0407 12.5398L13.3884 12.8991C14.0624 12.2468 14.9288 11.9147 16.0094 11.9147V11.4147ZM13.0407 12.5397C12.2628 13.2923 11.8835 14.2993 11.8835 15.5319H12.3835C12.3835 14.4091 12.7248 13.541 13.3883 12.8991L13.0407 12.5397ZM11.8835 15.5319V15.8132H12.3835V15.5319H11.8835Z" fill="#FFFFFF"/>
</svg>
